<svg xmlns="http://www.w3.org/2000/svg" width="60" height="20"><path fill="#0E214B" fill-rule="evenodd" d="M40.886 6.532c1.39.195 2.332 1.247 2.142 3.318C42.567 14.9 38.278 20.07 31.916 20l-.32-.009.017-.036c6.3.016 10.237-5.352 10.673-10.123.17-1.873-.672-2.825-1.906-2.998-1.768-.248-3.903.81-5.238 2.622l-.15.213-.023-.032c1.393-2.16 3.87-3.393 5.917-3.105zm12.926-.066c4.269.254 5.502 3.425 5.473 5.153-.08 4.618-3.58 7.863-9.584 8.338l-.336.024.013-.028c5.677-.439 9.178-4.172 9.257-8.791.027-1.555-1.004-4.206-4.559-4.638l-.278-.029.014-.03zm-22.553-5.05c.62.824-.1 2.458-.55 3.61l-.063.162-3.517 9.29c-.237.62-.512 1.31-.576 2.062-.146 1.705 1.293 3.183 4.15 3.392l.272.016-.013.028c-3.457-.108-5.124-1.839-4.96-3.758.058-.682.252-1.255.457-1.784l.088-.224 3.504-9.218c.44-1.236 1.033-2.453.502-3.241l-.089-.115v-.05l.795-.17zM53.187 6.43l-.013.028c-5.313.437-9.183 4.198-9.261 8.791-.027 1.555 1.028 4.257 4.564 4.643l.276.026-.012.027c-4.274-.252-5.508-3.452-5.478-5.18.08-4.678 3.975-7.958 9.924-8.335zm-13.342.731c1.129.159 1.849 1.007 1.698 2.653-.402 4.402-4.24 9.86-9.616 10.08l-.29.008.014-.03c4.968-.313 8.8-5.961 9.176-10.073.132-1.447-.517-2.199-1.488-2.335-1.355-.19-3.026.679-4.13 2.104l-.146.197-.024-.032c1.2-1.786 3.18-2.8 4.806-2.572zm13.928-.613c3.28.272 4.29 2.671 4.265 4.13-.076 4.454-3.383 8.676-8.352 9.196l-.283.025.014-.03c4.542-.476 7.921-5.196 7.998-9.648.021-1.282-.879-3.222-3.398-3.61l-.257-.034.013-.029zM32.915 1.074c.522.72-.382 2.805-.76 3.784l-.048.127-3.812 10.005c-.235.591-.578 1.47-.642 2.222-.118 1.384 1.018 2.45 3.121 2.639l.238.017-.013.028c-2.675-.104-4.034-1.41-3.898-3.006.059-.682.302-1.358.52-1.93l.092-.239 3.69-9.724c.382-.968 1.153-2.677.72-3.567l-.075-.127v-.05l.867-.18zM53.15 6.51l-.014.03c-4.414.474-7.901 5.275-7.976 9.65-.022 1.285.74 3.258 3.38 3.616l.253.029-.014.029c-3.284-.22-4.293-2.7-4.268-4.159.077-4.486 3.695-8.81 8.639-9.195zM3.407 2.794c.093.7.163 1.198.58 3l2.977 14.059H6.3L3.33 5.838c-.393-1.65-.536-2.402-1.036-3.014v-.03zm-2.22 0c.464.343.997.785 1.504 3.166l2.942 13.893h-.665L2.046 6.068C1.618 4.103 1.086 3.26 0 2.824v-.03zM34.622.718c.267.79-.786 3.297-1.058 4.008l-.032.085-4.07 10.69c-.238.618-.619 1.63-.683 2.383-.068.788.32 1.347 1.106 1.639.472.175.89.246 1.093.27l.065.008-.011.025c-1.912-.138-2.937-1.015-2.828-2.291.055-.645.358-1.475.592-2.085l.083-.218L32.85 4.784c.259-.668 1.276-2.986.978-3.75L33.78.938V.89l.843-.171zM53.734 6.63c2.292.263 3.052 1.917 3.031 3.106-.073 4.29-3.184 9.453-7.096 10.05l-.227.03.014-.03c3.462-.474 6.612-6.223 6.685-10.508.018-1.011-.567-2.237-2.21-2.58l-.21-.038.013-.03zM38.831 7.795c.813.114 1.365.766 1.253 1.986-.333 3.645-3.636 9.245-8.14 9.986l-.261.038.013-.029c4.195-.895 7.34-6.667 7.649-10.042.09-.993-.338-1.541-1.046-1.64-.942-.133-2.12.496-3.01 1.573l-.155.194-.024-.032c.948-1.36 2.488-2.208 3.721-2.034zm14.28-1.201l-.014.03c-3.335.47-6.62 6.329-6.691 10.507-.018 1.013.567 2.287 2.213 2.59l.211.032-.014.03c-2.27-.188-3.054-1.947-3.033-3.136.073-4.266 3.412-9.63 7.327-10.053zm-27.783-.156c.868 0 1.581.565 1.645 1.801.128 2.481-2.026 4.505-4.422 4.964l-.212.036-.027-.026c2.104-.484 4.187-2.42 4.07-4.705-.056-1.075-.687-1.586-1.45-1.586-1.413 0-2.64 1.218-3.418 2.827l-.007.125-.01.118.099-.196c.671-1.322 1.652-2.318 2.748-2.41l.165-.007c.684 0 1.207.457 1.256 1.398.099 1.923-1.623 3.796-3.332 4.331l-.177.05-.028-.026c1.446-.538 3.034-2.366 2.946-4.086-.04-.78-.482-1.183-1.06-1.183-1.059 0-2.016 1.09-2.665 2.467-.016.103-.032.206-.052.305.578-1.282 1.424-2.315 2.293-2.315.526 0 .86.35.893.995.071 1.39-1.122 3.078-2.262 3.69l-.148.073-.027-.027c.864-.564 1.907-2.285 1.846-3.468-.026-.483-.277-.779-.698-.779-.704 0-1.443 1.009-1.978 2.194l-.075.283-.082.278.08-.183c.466-1.05 1.057-2.003 1.546-2.106l.085-.01c.342 0 .486.243.504.592.043.835-.576 2.384-1.173 3.034l-.111.111-.028-.027c.54-.985.79-2.134.736-2.834-.015-.188-.087-.391-.323-.391-.298 0-.852.959-1.332 1.948l-.084.175c-.094.276-.195.555-.302.845l-.164.446-2.472 6.612h-.684l2.496-6.666c.532-1.425 1.046-2.661.965-4.247-.063-1.21-.874-2.15-2.346-2.15-2.987 0-4.577 2.072-5.212 4.432l-.055.216h-.027c.56-2.612 2.253-4.918 5.674-4.918 1.63 0 2.526 1.049 2.595 2.393.011.212.014.415.008.611.838-1.73 2.216-3.004 3.793-3.004zm-9.34 2.07c.369 0 .59.215.61.618.034.635-.74 2.469-1.16 3.508l-.07.175-2.744 6.962h-.684l2.768-7.015c.374-.914 1.29-3.038 1.26-3.603-.013-.268-.15-.376-.36-.376-.481 0-1.296 1.168-1.862 2.395l-.083.184h-.034c.562-1.451 1.496-2.848 2.36-2.848zm.737-.51c.683 0 1.074.43 1.106 1.048.045.882-.633 2.52-1.083 3.63l-.087.214-2.67 6.881h-.683l2.72-6.935c.392-1.048 1.215-2.93 1.173-3.763-.027-.51-.331-.807-.857-.807-1.15 0-2.113 1.422-2.705 2.897l-.075.193h-.034c.557-1.727 1.707-3.358 3.195-3.358zm.734-.538c1 0 1.56.645 1.603 1.505.058 1.123-.526 2.548-.98 3.736l-.102.27-2.595 6.8h-.71l2.646-6.827c.465-1.183 1.167-2.877 1.113-3.925-.039-.753-.514-1.29-1.355-1.29-1.715 0-2.923 1.636-3.544 3.427l-.067.2h-.03c.568-2.004 1.876-3.896 4.021-3.896zm.737-.511c1.315 0 2.043.86 2.1 1.963.062 1.205-.33 2.372-.776 3.533l-.246.633-2.521 6.693h-.684l2.571-6.747c.485-1.317 1.094-2.769 1.026-4.086-.052-.994-.694-1.72-1.851-1.72-2.36 0-3.739 1.843-4.378 3.929l-.061.209h-.032c.552-2.333 2.122-4.407 4.852-4.407zM36.349.359c.22.246-1.266 3.957-1.466 4.487l-.017.046-4.239 11.12c-.206.564-.687 1.819-.746 2.517-.059.68.42 1.028 1.064 1.176l.13.027-.013.03c-1.037-.164-1.81-.654-1.732-1.555.055-.653.399-1.626.64-2.265l.075-.2 4.142-10.904c.213-.596 1.227-3.04 1.29-4.107l.002-.143v-.05l.87-.18zm17.345 6.358c1.331.225 1.84 1.163 1.825 2.079-.07 4.122-2.985 10.269-5.871 10.906l-.167.031.015-.03c2.364-.449 5.302-7.256 5.373-11.365.012-.729-.28-1.281-1.034-1.54l-.157-.047.016-.034zm-16.06 1.694l.156.013c.551.077.882.526.812 1.292-.266 2.914-3.333 8.79-6.654 9.92l-.217.067.019-.041c2.953-1.3 5.897-7.352 6.136-9.96.052-.568-.209-.92-.602-.975-.563-.08-1.339.387-1.95 1.079l-.13.151-.023-.032c.66-.862 1.54-1.452 2.294-1.51l.16-.004zm15.437-1.734l-.014.032c-2.29.47-5.337 7.413-5.404 11.363-.013.735.24 1.356 1.057 1.563l.16.034-.015.03c-1.382-.153-1.841-1.194-1.826-2.11.07-4.07 3.205-10.485 6.042-10.912zM38.131 0l-6.338 16.522c-.237.618-.777 1.88-.837 2.58-.021.242.05.426.125.508l.037.032-.02.045a.952.952 0 01-.148-.062c-.295-.145-.522-.507-.509-.808.028-.647.455-1.765.707-2.403l.063-.16 4.31-11.335C35.59 4.71 37.191.685 37.26.216l.001-.037.87-.179zM5.223 2.794c-.176.578-.274 1.423.16 3.27l2.47 11.89-.438.935L4.644 5.75c-.352-1.582-.39-2.204-.374-2.957zm1.941 0v.03c-.618.561-.776 1.55-.406 3.45l1.984 9.783-.443.945L6.058 6.089c-.374-1.876-.276-2.588.052-3.295h1.055zm2.742 0v.03c-1.696.332-2.194 1.294-1.778 3.499l1.505 7.832-.447.954-1.722-8.774c-.539-2.614.422-3.312.876-3.541h1.566zm8.22 0v.03c-2.602.799-3.753 2.337-5.767 6.194l-.044-.03c1.756-3.812 2.588-5.36 3.985-6.194h1.826zm-3.09 0v.03c-.678 1.04-1.113 2.133-2.766 6.134l-.044-.03c1.065-3.03 1.607-4.498 1.467-6.093l.001-.041h1.341zm-2.394 0c.928.96.59 2.538-.46 6.105l-.045-.03c.986-3.986.658-5.513-.81-6.045v-.03z"/></svg>